<svg width="241" height="231" fill="none" xmlns="http://www.w3.org/2000/svg"><g clip-path="url(#a)"><path d="M63.171 59.498 96.683 111.2l2.106-.857L65.22 58.748l-2.05.75z" fill="#3B7CD3"/><path d="m96.603 111.447-.088-.139-33.647-51.911 2.433-.889.087.131 33.695 51.8-2.48 1.008zm-33.13-51.838 33.285 51.352 1.731-.701-33.353-51.27-1.662.62z" fill="#3B7CD3"/><path d="m65.222 58.747 1.762-.718 33.142 51.001-1.336 1.312-33.567-51.596-.001.001z" fill="#DEECFF"/><path d="M98.753 110.658 64.922 58.656l2.14-.874.088.14 33.233 51.142-1.631 1.594zM65.52 58.843l33.3 51.189 1.05-1.029-32.963-50.726-1.387.566z" fill="#3B7CD3"/><path d="M56.647 24.8C46.004 8.99 32.909-.82 27.402 2.87c-5.507 3.688-1.344 19.538 9.303 35.345C47.352 54.022 60.445 63.84 65.95 60.126c5.508-3.712 1.324-19.515-9.303-35.325zm7.293 29.242c-2.229 1.594-15.041-7.76-23.344-20.093-8.302-12.333-11.464-25.318-9.031-27.06 2.432-1.743 14.247 5.821 22.55 18.156 8.302 12.333 13.756 26.182 9.805 28.998h.02v-.001z" fill="#3B7CD3"/><path d="M63.13 61.129c-2.647 0-6.08-1.515-10.016-4.463-5.543-4.15-11.437-10.659-16.597-18.322C25.827 22.463 21.68 6.485 27.27 2.718 32.86-1.05 46.108 8.815 56.778 24.69c10.67 15.875 14.838 31.854 9.247 35.622a5.104 5.104 0 0 1-2.895.817zM30.202 2.29a4.79 4.79 0 0 0-2.707.758c-5.412 3.645-1.196 19.376 9.355 35.07 5.137 7.63 10.998 14.1 16.505 18.228 5.507 4.127 9.878 5.375 12.47 3.632 5.403-3.645 1.196-19.376-9.36-35.067-9.075-13.48-19.946-22.62-26.263-22.62zm33.046 52.122c-.174 0-.348-.017-.519-.048-3.923-.713-14.825-9.17-22.33-20.305-8.454-12.553-11.473-25.521-8.965-27.335.398-.283.981-.355 1.755-.215 4.031.715 13.857 7.688 21.083 18.423 8.102 12.035 13.957 26.275 9.754 29.269-.23.15-.504.224-.778.211zM32.502 6.842a1.392 1.392 0 0 0-.821.207c-2.33 1.683.873 14.627 9.06 26.788C48.177 44.883 58.938 53.27 62.8 53.971c.334.098.694.065 1.005-.092 3.536-2.517-.882-15.4-9.854-28.71-7.178-10.643-16.86-17.546-20.824-18.256a3.71 3.71 0 0 0-.626-.072h.002z" fill="#3B7CD3"/><g opacity=".5" fill="#3B7CD3"><path d="M64.096 60.929 96.683 111.2l2.105-.857-32.666-50.208-2.026.794z"/><path d="M96.682 111.401a.196.196 0 0 1-.095-.025.19.19 0 0 1-.072-.067L63.928 61.038a.195.195 0 0 1-.02-.168.196.196 0 0 1 .117-.127l2.021-.798a.21.21 0 0 1 .244.076l32.662 50.212a.17.17 0 0 1 .033.08.18.18 0 0 1-.01.087.183.183 0 0 1-.042.075.172.172 0 0 1-.073.048l-2.105.858a.166.166 0 0 1-.072.02zM64.4 61.018l32.36 49.928 1.73-.702-32.448-49.865-1.642.639z"/></g><g opacity=".5" fill="#3B7CD3"><path d="M56.649 24.8C46.005 8.99 32.91-.82 27.403 2.87c-5.507 3.688-1.344 19.538 9.303 35.345C47.352 54.022 60.444 63.84 65.95 60.127c5.507-3.712 1.324-19.515-9.302-35.326zm7.293 29.242c-2.23 1.594-15.041-7.76-23.344-20.093-8.302-12.334-11.464-25.318-9.031-27.06 2.432-1.743 14.247 5.821 22.55 18.156 8.302 12.333 13.756 26.182 9.805 28.998h.02v-.001z"/><path d="M63.132 61.128c-2.648 0-6.081-1.515-10.017-4.462-5.543-4.152-11.437-10.66-16.597-18.323-10.69-15.879-14.837-31.857-9.247-35.626C32.861-1.05 46.108 8.815 56.78 24.69c10.67 15.875 14.838 31.854 9.247 35.622a5.104 5.104 0 0 1-2.895.817zM30.202 2.29a4.79 4.79 0 0 0-2.707.758c-5.412 3.645-1.196 19.376 9.355 35.071 5.136 7.628 10.998 14.1 16.505 18.227 5.506 4.127 9.877 5.375 12.47 3.633 5.402-3.646 1.195-19.377-9.36-35.068-9.076-13.48-19.946-22.62-26.263-22.62zm33.046 52.122c-.174 0-.348-.017-.519-.048-3.923-.713-14.825-9.17-22.33-20.305-8.454-12.553-11.473-25.52-8.965-27.334.398-.284.98-.356 1.755-.215 4.03.714 13.856 7.687 21.083 18.422 8.102 12.035 13.956 26.275 9.753 29.27-.23.149-.503.223-.777.21zM32.503 6.841a1.392 1.392 0 0 0-.822.207c-2.329 1.683.874 14.627 9.06 26.788 7.437 11.046 18.2 19.432 22.06 20.134.333.098.693.065 1.004-.092 3.537-2.517-.88-15.4-9.853-28.71-7.178-10.643-16.86-17.546-20.824-18.256a3.71 3.71 0 0 0-.626-.072h.001z"/></g><path d="M60.704 55.73c-5.34.685-12.581-6.537-20.058-16.09-9.04-11.565-11.544-20.258-12.361-25.876-.817-5.618 3.286-6.875 3.286-6.875-2.416 1.743.706 14.73 9.012 27.06 8.306 12.33 21.114 21.676 23.343 20.093.67-.479 1.069-1.272 1.233-2.325l.08.112s.805 3.205-4.535 3.9z" fill="#DEECFF"/><path d="M59.973 55.975c-4.634 0-10.858-5.184-19.487-16.217C33.368 30.667 29.32 22.172 28.08 13.79c-.837-5.713 3.382-7.081 3.426-7.093l1.152-.355-.978.705c-2.329 1.683.874 14.627 9.06 26.79 7.437 11.045 18.2 19.431 22.06 20.133.333.098.693.065 1.004-.091.606-.431.993-1.168 1.149-2.194l.072-.47.398.562a2.786 2.786 0 0 1-.459 2.133c-.73 1.069-2.157 1.747-4.243 2.019-.249.031-.5.047-.75.047h.002zM30.94 7.391c-1.092.626-3.05 2.333-2.464 6.345 1.22 8.306 5.251 16.747 12.325 25.78 9.008 11.512 15.33 16.604 19.875 16.017 1.962-.255 3.293-.874 3.96-1.839.107-.158.197-.328.267-.505-.203.403-.501.75-.87 1.012a1.713 1.713 0 0 1-1.304.164c-3.923-.715-14.825-9.171-22.33-20.306C32.65 22.535 29.471 10.66 30.94 7.39v.001z" fill="#3B7CD3"/><path d="M66.972 59.697a4.825 4.825 0 0 1-.778.255c3.756-5.052.275-20.532-9.57-35.15C46.1 9.17 33.183-.597 27.57 2.77a6.04 6.04 0 0 1 1.594-1.572c6.523-4.314 19.252 5.583 29.812 21.569 10.559 15.986 16.647 32.71 7.995 36.929z" fill="#DEECFF"/><path d="m65.755 60.219.28-.399c3.532-4.749.53-19.918-9.571-34.92C46.097 9.49 33.177-.364 27.674 2.926l-.798.49.55-.797a6.27 6.27 0 0 1 1.663-1.595c6.38-4.21 19.02 4.885 30.09 21.625 9.129 13.8 13.51 25.92 11.732 32.455a7.117 7.117 0 0 1-3.836 4.758l-.088-.18.088.18c-.27.118-.55.21-.837.28l-.483.079v-.001zm-35.55-58.32c6.509 0 17.375 9.1 26.59 22.79 4.638 6.89 8.158 14.43 9.91 21.226 1.566 6.08 1.547 11.014-.036 13.686l.215-.084a6.768 6.768 0 0 0 3.628-4.51c1.747-6.408-2.615-18.419-11.68-32.128C47.887 6.334 35.465-2.713 29.292 1.346a5.795 5.795 0 0 0-1.005.846 5.61 5.61 0 0 1 1.919-.291V1.9z" fill="#3B7CD3"/><path d="M106.461 40.927v.985c0 .657-1.38 1.053-1.38 1.053l-2.975-.578-3.19 2.094-8.163-4.275a7.296 7.296 0 0 1-2.748-1.305 7.309 7.309 0 0 1-1.981-2.309c-1.707-3.086 1.97-4.462 1.97-4.462s-.658-1.248.985-2.959a2.792 2.792 0 0 1 3.414-.654s.984-2.105 4.725-2.169c3.74-.063 3.153 4.534 3.153 4.534a4.027 4.027 0 0 1 3.877-.459c2.101.917.917 4.267.917 4.267s2.165.127 3.153 2.759c.99 2.631-1.757 3.477-1.757 3.477z" fill="#5E96FC"/><path d="M98.915 44.668a.184.184 0 0 1-.092-.024l-8.122-4.247a7.463 7.463 0 0 1-4.837-3.705 3 3 0 0 1-.319-2.556c.454-1.224 1.73-1.898 2.21-2.118-.132-.443-.264-1.576 1.096-2.987a2.998 2.998 0 0 1 3.473-.798c.339-.526 1.594-2.05 4.809-2.105a3.022 3.022 0 0 1 2.425.95c.933 1.044.988 2.647.961 3.397a4.116 4.116 0 0 1 3.723-.255c1.935.846 1.337 3.48 1.102 4.286.622.12 2.244.639 3.077 2.851a2.7 2.7 0 0 1 0 2.197 3.312 3.312 0 0 1-1.746 1.49v.847c0 .797-1.368 1.196-1.523 1.244a.186.186 0 0 1-.092 0l-2.919-.563-3.098 2.094a.222.222 0 0 1-.128 0v.002zm-7.819-16.29a2.682 2.682 0 0 0-1.975.922c-1.51 1.57-.976 2.68-.952 2.727a.185.185 0 0 1 0 .164.196.196 0 0 1-.045.069.2.2 0 0 1-.071.043s-1.67.646-2.157 1.966a2.627 2.627 0 0 0 .29 2.218 7.181 7.181 0 0 0 4.59 3.512l.06.02 8.08 4.252 3.054-2.026a.19.19 0 0 1 .147-.032l2.951.57c.398-.131 1.196-.478 1.196-.85v-.984a.205.205 0 0 1 .14-.192 3.023 3.023 0 0 0 1.647-1.34 2.318 2.318 0 0 0 0-1.878c-.926-2.468-2.896-2.624-2.979-2.628a.182.182 0 0 1-.087-.025.197.197 0 0 1-.096-.147.196.196 0 0 1 .007-.09c0-.032 1.098-3.19-.797-4.023a3.87 3.87 0 0 0-3.673.435.199.199 0 0 1-.222 0 .19.19 0 0 1-.078-.084.19.19 0 0 1-.018-.112c0-.024.27-2.261-.834-3.494a2.654 2.654 0 0 0-2.121-.817c-3.557.06-4.542 2.034-4.55 2.054a.209.209 0 0 1-.05.065.19.19 0 0 1-.074.039.207.207 0 0 1-.159 0 2.47 2.47 0 0 0-1.209-.32l-.015-.01v-.004z" fill="#5E96FC"/><path d="M106.461 40.927v.985c0 .658-1.576 1.228-1.576 1.228l-2.791-.753s2.137-.367 2.715-.738a1.425 1.425 0 0 0 .559-1.16 5.871 5.871 0 0 0 1.626-2.792c.32-1.595-1.901-3.007-1.901-3.007s2.164.128 3.154 2.76c.989 2.63-1.786 3.476-1.786 3.476v.001zM91.34 40.316s-3.896-1.766-2.449-4.362c1.025-1.838 1.547 2.165 2.847 2.448 1.3.283.598 1.631.598 1.631l-.997.283z" fill="#3B7CD3"/><path d="M110.021 55.318c-3.294 1.846-6.193-1.547-6.193-1.547a21.17 21.17 0 0 0-.478-2.198c-.287-1.037-.705-2.185-1.268-2.839-.498-.586-1.141-.662-1.883-.51-1.035.207-2.272.86-3.612 1.196-2.297.598-3.146-3.146-3.589-4.044-.442-.897-1.248-.398-2.436-1.698-1.189-1.3.69-5.582.69-5.582.33.23.684.428 1.056.586.798.398 3.438-1.34 4.486-1.24 1.05.1 1.3 4.945 2.198 4.785.897-.16-.28-1.994-.032-3.139.247-1.144 2.939-2.747 4.43-1.196 2.488 2.58 0 4.741 0 4.741l9.534 3.19s1.97 6.764-2.903 9.495z" fill="#DEECFF"/><path d="M107.999 56.064c-2.44 0-4.303-2.137-4.323-2.165a.216.216 0 0 1-.047-.1 20.42 20.42 0 0 0-.475-2.173v-.028a7.557 7.557 0 0 0-1.22-2.74c-.399-.466-.917-.606-1.695-.446-.587.142-1.162.331-1.718.566a16.9 16.9 0 0 1-1.883.639c-2.065.538-3.03-2.062-3.549-3.461-.108-.287-.199-.535-.275-.686a1.162 1.162 0 0 0-.797-.586 3.626 3.626 0 0 1-1.619-1.065c-1.268-1.38.574-5.627.654-5.806a.196.196 0 0 1 .225-.116c.03.006.058.02.082.04.319.22.66.408 1.017.562.355.167 1.327-.24 2.185-.599.857-.358 1.694-.709 2.233-.66.677.063 1.005 1.355 1.351 2.723.184.73.527 2.077.798 2.077a.164.164 0 0 0 .077-.022.166.166 0 0 0 .059-.054c.116-.172 0-.681-.132-1.133a4.113 4.113 0 0 1-.195-1.778c.16-.742 1.132-1.567 2.217-1.874.436-.154.906-.18 1.357-.078.45.103.863.33 1.191.656a3.586 3.586 0 0 1 1.16 2.644 3.533 3.533 0 0 1-.937 2.149l9.232 3.086a.207.207 0 0 1 .128.136c.024.068 1.965 6.943-2.988 9.722a4.315 4.315 0 0 1-2.113.57zm-3.988-2.392c.351.398 2.951 3.118 5.906 1.459 4.362-2.444 3.042-8.322 2.827-9.171l-9.442-3.135a.179.179 0 0 1-.089-.055.195.195 0 0 1-.04-.198.205.205 0 0 1 .06-.086 3.31 3.31 0 0 0 1.033-2.109 3.178 3.178 0 0 0-1.048-2.341 2.093 2.093 0 0 0-2.153-.47c-1.017.286-1.822 1.044-1.939 1.575-.045.54.022 1.082.196 1.595.156.605.287 1.128.08 1.451a.563.563 0 0 1-.4.247c-.621.096-.896-.99-1.247-2.369-.24-.953-.606-2.392-1-2.425-.396-.031-1.254.299-2.043.63-1.029.426-1.994.833-2.512.59a8.505 8.505 0 0 1-.881-.466c-.539 1.304-1.487 4.227-.634 5.156.39.45.899.782 1.467.961a1.516 1.516 0 0 1 1.001.798c.084.167.176.398.291.722.51 1.372 1.36 3.66 3.079 3.218a17.505 17.505 0 0 0 1.838-.63 11.694 11.694 0 0 1 1.786-.582 1.998 1.998 0 0 1 2.074.574c.49.575.929 1.556 1.308 2.92v.028a18.8 18.8 0 0 1 .487 2.125l-.005-.011v-.001z" fill="#3B7CD3"/><path d="M99.744 40.496a.2.2 0 0 1-.2-.2c0-.072.032-1.79 1.421-2.157a1.4 1.4 0 0 1 1.646.53.187.187 0 0 1 .016.152.183.183 0 0 1-.035.069.199.199 0 0 1-.331-.03c0-.02-.335-.566-1.197-.339-1.092.29-1.12 1.763-1.12 1.779a.206.206 0 0 1-.015.076.211.211 0 0 1-.044.064.205.205 0 0 1-.065.042.185.185 0 0 1-.076.014z" fill="#3B7CD3"/><path d="M101.622 40.68h-.039a2.005 2.005 0 0 1-.706-.339c-.335-.251-.084-.59.064-.798.125-.142.215-.31.263-.494 0-.048 0-.068-.019-.08a.984.984 0 0 0-.623-.107.21.21 0 0 1-.145-.046.202.202 0 0 1-.074-.134.197.197 0 0 1 .045-.146.198.198 0 0 1 .134-.073c.336-.047.677.036.953.232a.479.479 0 0 1 .124.4 1.53 1.53 0 0 1-.335.67.92.92 0 0 0-.151.247c.167.119.355.207.553.26a.202.202 0 0 1 .178.22.202.202 0 0 1-.222.178v.011zM94.529 46.49a1.337 1.337 0 0 1-.315-.032.205.205 0 0 1-.124-.091.208.208 0 0 1-.024-.152.203.203 0 0 1 .166-.148.195.195 0 0 1 .078.005 1.562 1.562 0 0 0 1.3-.398c.626-.535.204-1.843.199-1.854a.2.2 0 0 1 .202-.262.207.207 0 0 1 .138.07c.018.02.031.043.039.069.02.063.51 1.575-.319 2.28a2.06 2.06 0 0 1-1.34.516v-.003zM93.018 41.457a.49.49 0 1 0 0-.982.49.49 0 0 0 0 .982zM103.765 45.022s.183 2.03.183 3.501a11.28 11.28 0 0 1-.442 2.839 7.696 7.696 0 0 0-1.276-2.791 1.903 1.903 0 0 0-1.935-.583s1.596-.422 2.433-1.435a6.447 6.447 0 0 0 1.037-1.531z" fill="#3B7CD3"/><path d="M150.459 45.884s8.992 1.528 16.381 13.351c7.389 11.824 9.969 25.784 9.969 25.784l-29.556-13.446 3.206-25.688z" fill="#DEECFF"/><path d="M176.817 85.218a.247.247 0 0 1-.084 0l-29.567-13.466a.19.19 0 0 1-.116-.204l3.19-25.688a.202.202 0 0 1 .08-.135.206.206 0 0 1 .151-.036c.092 0 9.171 1.68 16.521 13.438 7.349 11.76 9.969 25.716 10.001 25.855a.214.214 0 0 1-.012.107.189.189 0 0 1-.064.085.192.192 0 0 1-.1.045v-.001zm-29.34-13.766 29.065 13.223c-.475-2.312-3.262-14.754-9.87-25.337-6.606-10.584-14.666-12.896-16.041-13.215l-3.154 25.33z" fill="#3B7CD3"/><path d="M101.093 75.189s-1.89 5.036-8.565 3.318c-6.675-1.719-22.283-9.57-24.225-5.527-1.504 3.142 1.451 4.988 1.451 4.988s-2.033 2.943-1.678 5.79 5.898 15.512 11.591 16.098c2.214.232 3.84.546 9.224-.677l2.14-4.136s1.66 3.433 2.393 3.278c9.28-1.958 19.345-5.212 21.195-7.002 2.934-2.84 3.138-5.886 3.138-5.886l-16.664-10.244z" fill="#DEECFF"/><path d="M82.567 100.271a21.872 21.872 0 0 1-2.453-.165l-.47-.051c-5.894-.61-11.44-13.645-11.767-16.274-.319-2.536 1.176-5.095 1.595-5.766-.623-.466-2.704-2.308-1.356-5.12 1.455-3.034 9.686.072 16.947 2.816 2.868 1.084 5.583 2.105 7.51 2.604 6.407 1.65 8.249-2.995 8.325-3.19a.197.197 0 0 1 .122-.121c.027-.01.057-.013.087-.01a.198.198 0 0 1 .082.031L117.85 85.27a.193.193 0 0 1 .073.078c.018.033.024.07.022.106 0 .127-.239 3.153-3.191 6.008-1.842 1.783-11.591 5.013-21.289 7.058-.722.152-1.842-1.85-2.436-3.03l-1.963 3.784a.216.216 0 0 1-.132.104c-3.073.694-4.923.894-6.367.894zM70.923 72.034c-1.216 0-2.089.3-2.44 1.033-1.408 2.94 1.264 4.658 1.375 4.73a.2.2 0 0 1 .093.126.211.211 0 0 1-.033.156c0 .029-1.993 2.92-1.643 5.654.399 3.123 5.934 15.357 11.413 15.927l.487.037c1.994.215 3.7.398 8.593-.707l2.101-4.051a.196.196 0 0 1 .073-.078.192.192 0 0 1 .278.082c.85 1.754 1.866 3.245 2.17 3.17 9.47-1.993 19.327-5.244 21.094-6.95a10.002 10.002 0 0 0 3.066-5.64l-16.349-10.055c-.474.968-2.748 4.753-8.7 3.221-1.95-.502-4.674-1.53-7.553-2.62-4.941-1.846-10.755-4.035-14.025-4.035z" fill="#3B7CD3"/><path d="m204.156 168.977 8.195 4.124 16.936-4.124-.982-14.53-12.76-3.338-11.389 17.868zM75.616 156.308l-13.358 11.823 28.631 34.561 14.905-15.907-30.178-30.477z" fill="#DEECFF"/><path d="M90.888 202.891a.196.196 0 0 1-.082-.019.202.202 0 0 1-.065-.053l-28.63-34.561a.198.198 0 0 1 .02-.275l13.358-11.827a.204.204 0 0 1 .275 0l30.175 30.477a.197.197 0 0 1 0 .276l-14.903 15.906a.201.201 0 0 1-.065.053.217.217 0 0 1-.082.023zm-28.352-34.736L90.9 202.393l14.614-15.604-29.906-30.21-13.072 11.576zM89.018 99.13a.18.18 0 0 1-.127-.043.185.185 0 0 1-.073-.133.195.195 0 0 1 .045-.147c.023-.032 2.596-3.233 1.594-5.455-1.307-2.97-2.823-2.64-2.886-2.623a.204.204 0 0 1-.244-.148.195.195 0 0 1 .144-.24c.076-.02 1.894-.454 3.35 2.848 1.08 2.448-1.556 5.73-1.671 5.87a.196.196 0 0 1-.132.072z" fill="#3B7CD3"/><path d="M82.805 93.46a.206.206 0 0 1-.148-.04.201.201 0 0 1 .097-.359c.04 0 4.29-1.196 5.132-3.633.339-.977.08-2.042-.762-3.19-3.5-4.697-8.042-1.946-8.234-1.826a.195.195 0 0 1-.073.027.194.194 0 0 1-.202-.091.204.204 0 0 1 .063-.275c.052-.032 5.044-3.07 8.773 1.93.925 1.24 1.196 2.433.818 3.54-.914 2.64-5.225 3.837-5.408 3.885a.125.125 0 0 1-.056.031z" fill="#3B7CD3"/><path d="M83.204 83.626a.199.199 0 0 1-.2-.204.208.208 0 0 1 .017-.077.204.204 0 0 1 .112-.106 1.359 1.359 0 0 0 .71-.796c.235-.65.055-1.556-.523-2.62-2.819-5.184-13.397-1.715-13.501-1.68a.202.202 0 0 1-.217-.058.197.197 0 0 1-.025-.22.202.202 0 0 1 .114-.1c.447-.147 11.002-3.59 13.98 1.866.646 1.196.83 2.185.542 2.954a1.758 1.758 0 0 1-.94 1.017.191.191 0 0 1-.069.024zM89.019 98.93l2.013-3.887 2.062 3.17s-1.575-1.46-2.025-1.404c-.451.057-2.05 2.122-2.05 2.122z" fill="#3B7CD3"/><path d="M168.539 76.19s18.857 14.135 24.592 36.035c5.734 21.9 6.196 26.258 6.196 26.258l21.111 12.653s-.227 7.975-5.049 12.577a49.913 49.913 0 0 1-10.324 7.413s-29.679-11.684-34.692-19.99a438.813 438.813 0 0 0-9.829-15.499s-56.368 60.795-59.216 61.484a7.083 7.083 0 0 1-4.785-.399l5.089-5.403s-3.087-10.464-10.919-18.654c-7.3-7.636-19.515-15.898-22.953-13.051-3.438 2.847 63.248-62.406 63.248-62.406l-1.595-12.792 35.147-11.19 3.979 2.964z" fill="#5E96FC"/><path d="M99.421 197.552a6.633 6.633 0 0 1-2.986-.646.228.228 0 0 1-.1-.143.206.206 0 0 1 .008-.091.207.207 0 0 1 .045-.077l5.008-5.32c-.355-1.133-3.553-10.846-10.835-18.467-7.691-8.043-19.539-15.651-22.681-13.035-.104.088-.267.219-.398.072-.132-.148-.167-.187 2.663-3.034 1.63-1.635 4.036-4.032 7.15-7.114 5.247-5.184 12.58-12.418 21.796-21.47 15.153-14.89 30.529-29.935 31.702-31.083l-1.596-12.693a.2.2 0 0 1 .135-.215l35.144-11.193a.19.19 0 0 1 .179.032l3.987 2.954c.192.144 18.978 14.427 24.668 36.144 5.243 19.962 6.093 25.406 6.204 26.202l21.023 12.598a.197.197 0 0 1 .096.179c0 .08-.287 8.114-5.108 12.713a50.767 50.767 0 0 1-10.368 7.445.221.221 0 0 1-.168 0c-1.196-.479-29.799-11.804-34.783-20.07a442.44 442.44 0 0 0-9.683-15.281c-4.047 4.366-56.328 60.671-59.151 61.354a8.322 8.322 0 0 1-1.95.239zm-2.551-.885a7.233 7.233 0 0 0 4.41.259c2.205-.535 39.637-40.406 59.12-61.409a.19.19 0 0 1 .074-.05.19.19 0 0 1 .173.013.21.21 0 0 1 .065.061c.051.072 4.88 7.297 9.833 15.508 4.785 7.935 32.75 19.172 34.509 19.874a50.352 50.352 0 0 0 10.2-7.341c4.386-4.183 4.924-11.326 4.98-12.318l-21.011-12.605a.217.217 0 0 1-.096-.147c0-.044-.529-4.63-6.188-26.231-5.658-21.601-24.301-35.761-24.52-35.924l-3.912-2.896-34.887 11.102 1.595 12.629c.003.03 0 .061-.011.09a.221.221 0 0 1-.049.078c-20.058 19.626-56.855 55.718-62.605 61.632 4.505-1.3 15.779 6.723 22.298 13.557 7.776 8.135 10.934 18.635 10.967 18.742a.197.197 0 0 1-.048.191l-4.897 5.185z" fill="#3B7CD3"/><path d="m160.547 135.645-21.453-33.205 18.542 36.335 2.911-3.13zM212.351 163.921a.203.203 0 0 1-.112-.037c-.207-.139-20.855-14.031-28.994-19.765-8.138-5.735-27.914-62.765-28.766-65.19a.197.197 0 0 1 .123-.25.201.201 0 0 1 .255.122c.204.59 20.537 59.296 28.619 64.998 8.084 5.702 28.779 19.624 28.986 19.763a.202.202 0 0 1 .056.279.216.216 0 0 1-.074.06.216.216 0 0 1-.093.02z" fill="#3B7CD3"/><path d="M159.492 97.486a21.438 21.438 0 0 1-9.251-2.264c-5.981-2.903-4.933-11.349-4.92-11.437a.193.193 0 0 1 .075-.132.2.2 0 0 1 .147-.039.204.204 0 0 1 .172.223c0 .084-1.013 8.25 4.701 11.025 5.79 2.816 10.324 2.166 10.368 2.158a.203.203 0 0 1 .192.32.2.2 0 0 1-.132.079c-.449.05-.901.073-1.352.067z" fill="#3B7CD3"/><path d="m171.434 78.503-2.696-2.157a35.877 35.877 0 0 0-7.732.74 40.96 40.96 0 0 0-7.002 2.035 35.646 35.646 0 0 0-7.293 3.852A86.981 86.981 0 0 0 131 97.216l-.898-.797-1.594-1.415-8.558-7.61-2.201-1.96a14.842 14.842 0 0 1-4.877-1.197 18.712 18.712 0 0 1-4.825-2.903c-4.857-4.008-6.962-6.161-6.962-6.161s-1.248-8.107-.307-13.67c.083-.497.187-.98.307-1.427a39.6 39.6 0 0 1 .73-2.392c.183-.539.363-1.005.53-1.411.194-.475.412-.94.653-1.392.201-.426.481-.81.826-1.13 0 0 4.04 4.156 7.285.775 3.246-3.382 1.802-8.71 1.802-8.71s1.296-1.774 9.843-2.692c8.545-.916 17.712-.992 22.183-.454l.685.1c.671.098 1.337.23 1.994.399 2.851.714 4.546 1.814 4.909 2.249.067.056.12.127.158.206a.618.618 0 0 1 0 .51.615.615 0 0 1-.158.206l-1.882-.523s.175.539.43 1.424a63.978 63.978 0 0 1 1.727 7.576c.258 1.521.335 3.068.227 4.606-.103.998-.188 1.863-.267 2.613-.283 2.747-.427 3.936-.427 3.936l.901.398c3.784 1.695 18.224 8.323 18.894 10.998.374 1.48-.694 1.137-.694 1.137v-.002z" fill="#92C1FF"/><path d="M131.001 97.416a.205.205 0 0 1-.133-.048l-13.211-11.74a15.185 15.185 0 0 1-4.872-1.196 18.844 18.844 0 0 1-4.877-2.935c-4.785-3.964-6.954-6.153-6.974-6.173a.17.17 0 0 1-.056-.111c0-.08-1.244-8.203-.311-13.73.091-.518.195-1.005.315-1.447a33.514 33.514 0 0 1 1.268-3.816c.193-.483.414-.954.662-1.411a3.79 3.79 0 0 1 .885-1.197.199.199 0 0 1 .255.028c.02 0 2.014 2.037 4.247 2.037a3.742 3.742 0 0 0 2.744-1.264c3.13-3.262 1.767-8.47 1.754-8.521a.192.192 0 0 1 .032-.171c.052-.076 1.444-1.859 9.969-2.771 9.044-.965 18.024-.958 22.227-.45.239.027.466.059.694.095.67.1 1.34.235 1.994.399 2.962.745 4.657 1.886 5.012 2.32a.879.879 0 0 1 .243.682.797.797 0 0 1-.295.522.189.189 0 0 1-.172.032l-1.531-.426c.076.252.188.618.324 1.081a64.724 64.724 0 0 1 1.731 7.625 19.33 19.33 0 0 1 .25 4.601l-.083.837c-.064.654-.124 1.244-.18 1.774-.227 2.185-.363 3.398-.398 3.792l.769.34c4.282 1.921 18.319 8.396 19.005 11.132.147.602.1 1.025-.152 1.256a.862.862 0 0 1-.797.14.167.167 0 0 1-.064-.036l-2.644-2.113a36.405 36.405 0 0 0-7.62.737 40.795 40.795 0 0 0-6.966 2.022 35.347 35.347 0 0 0-7.258 3.832c-8.936 6.185-15.571 14.12-15.631 14.2a.196.196 0 0 1-.14.072h-.015zm-29.724-22.331c.331.331 2.492 2.464 6.898 6.1a18.55 18.55 0 0 0 4.785 2.876 14.862 14.862 0 0 0 4.805 1.16c.048.002.093.02.128.053l13.095 11.647c.985-1.156 7.297-8.394 15.62-14.128a36.137 36.137 0 0 1 7.337-3.86 41.273 41.273 0 0 1 7.034-2.041c2.56-.527 5.17-.777 7.784-.746.041.005.081.02.115.044l2.66 2.13a.442.442 0 0 0 .375-.056c.131-.124.144-.431.036-.866-.522-2.026-10.029-6.95-18.802-10.867-.574-.259-.901-.398-.901-.398a.19.19 0 0 1-.091-.085.19.19 0 0 1-.024-.123s.143-1.216.426-3.932c.056-.53.112-1.12.179-1.774l.085-.837c.093-1.505.01-3.016-.248-4.502a64.398 64.398 0 0 0-1.722-7.576c-.255-.877-.427-1.42-.427-1.42a.19.19 0 0 1-.006-.105.199.199 0 0 1 .05-.094.226.226 0 0 1 .092-.053.217.217 0 0 1 .108-.002l1.766.494a.415.415 0 0 0 .08-.187.537.537 0 0 0-.156-.38c-.315-.398-1.962-1.47-4.786-2.184-.637-.16-1.299-.291-1.961-.399a28.085 28.085 0 0 0-.682-.096c-4.179-.502-13.123-.507-22.135.455-7.381.797-9.307 2.233-9.646 2.547.184.798 1.152 5.643-1.879 8.793a4.126 4.126 0 0 1-3.03 1.387c-2.074 0-3.88-1.543-4.387-2.021-.25.288-.467.605-.646.945a14.4 14.4 0 0 0-.646 1.372c-.187.459-.358.917-.522 1.4a35.02 35.02 0 0 0-.726 2.392 14.91 14.91 0 0 0-.306 1.407c-.894 5.209.159 12.773.271 13.542v-.012z" fill="#3B7CD3"/><path d="m141.734 60.203 10.599 5.746.454-4.179-11.053-1.567zM109.216 74.044l8.537 11.389-2.551-.411-5.986-10.978zM150.46 45.884l1.941.47s1.48-.61-.928-1.687c-1.683-.753-1.013 1.217-1.013 1.217zM168.539 76.19s2.257 2.444 2.895 2.313c.637-.132 1.14-.654.43-1.676-.637-.916-3.325-.637-3.325-.637zM96.471 196.738s3.474 1.228 4.857.398c2.513-1.542.328-6.228.328-6.228l-5.185 5.83zM67.461 159.674a2.251 2.251 0 0 0 .29 1.95l.664 1.06 3.628-3.214a7.829 7.829 0 0 0-2.288-.422c-.785.124-1.553.334-2.293.626zM147.409 43.384a4.392 4.392 0 0 1-1.866-.399.2.2 0 0 1-.104-.24.203.203 0 0 1 .084-.111.193.193 0 0 1 .136-.028c.674.104 1.347.235 1.993.398a.2.2 0 0 1 .117.08c.028.039.041.087.035.135a.202.202 0 0 1-.187.18l-.208-.016zM122.538 52.076a4.366 4.366 0 0 1-2.937-1.13 4.364 4.364 0 0 1 2.1-7.515 4.362 4.362 0 0 1 3.265 7.914 4.347 4.347 0 0 1-1.582.644 4.104 4.104 0 0 1-.846.087zm0-8.33a3.958 3.958 0 0 0-3.684 2.447 3.966 3.966 0 0 0 .364 3.718 3.975 3.975 0 0 0 3.294 1.764 3.964 3.964 0 0 0 3.296-1.759 3.96 3.96 0 0 0 .662-2.005 3.961 3.961 0 0 0-1.914-3.593 3.966 3.966 0 0 0-2.033-.57h.015v-.002zM139.867 54.637a4.359 4.359 0 0 1-3.833-2.31 4.355 4.355 0 0 1 .217-4.47 4.362 4.362 0 1 1 7.249 4.852 4.339 4.339 0 0 1-2.791 1.854c-.277.05-.56.074-.842.072v.002zm0-8.326a3.96 3.96 0 0 0-3.941 3.875 3.966 3.966 0 0 0 5.737 3.634 3.956 3.956 0 0 0 .261-6.932 3.943 3.943 0 0 0-2.037-.564l-.02-.011v-.002z" fill="#3B7CD3"/><path d="M149.463 68.936a4.366 4.366 0 0 1-3.834-2.31 4.364 4.364 0 0 1 .217-4.47.198.198 0 0 1 .129-.084.198.198 0 0 1 .15.033.188.188 0 0 1 .084.127.186.186 0 0 1-.001.078.183.183 0 0 1-.031.07 3.97 3.97 0 0 0-.593 2.976 3.968 3.968 0 0 0 4.661 3.116 3.968 3.968 0 0 0 2.723-2.012l-.713-.315a.195.195 0 0 1-.093-.085.21.21 0 0 1-.024-.123s.144-1.216.428-3.93a.192.192 0 0 1 .072-.136.197.197 0 0 1 .146-.044.2.2 0 0 1 .18.219c-.228 2.185-.363 3.397-.398 3.792l.769.338a.196.196 0 0 1 .102.112.195.195 0 0 1-.003.151c-.089.2-.195.39-.318.57a4.34 4.34 0 0 1-2.792 1.855 4.468 4.468 0 0 1-.861.072zM114.415 64.207a4.358 4.358 0 0 1-4.224-3.31 4.358 4.358 0 0 1 2.183-4.903 4.359 4.359 0 0 1 5.287.926 4.358 4.358 0 0 1 .387 5.354 4.36 4.36 0 0 1-3.633 1.933zm0-8.322a3.962 3.962 0 0 0-3.969 3.863 3.964 3.964 0 0 0 7.259 2.302 3.956 3.956 0 0 0 .204-4.07 3.955 3.955 0 0 0-3.494-2.094v-.001zM131.741 66.79a4.315 4.315 0 0 1-2.416-.734 4.366 4.366 0 0 1-1.852-4.48 4.366 4.366 0 0 1 3.431-3.425 4.366 4.366 0 0 1 4.478 1.862 4.367 4.367 0 0 1-.008 4.848 4.351 4.351 0 0 1-3.633 1.93v-.001zm0-8.323a3.962 3.962 0 0 0-3.927 3.377 3.965 3.965 0 0 0 2.764 4.38 3.962 3.962 0 0 0 4.976-4.846 3.959 3.959 0 0 0-3.796-2.91h-.017zM141.335 81.081a4.382 4.382 0 0 1-4.376-4.175 4.382 4.382 0 0 1 3.954-4.576 4.388 4.388 0 0 1 1.28 8.668 4.44 4.44 0 0 1-.858.083zm0-8.33a4.06 4.06 0 0 0-.798.08 3.966 3.966 0 0 0-3.173 4.276 3.963 3.963 0 0 0 5.814 3.108 3.958 3.958 0 0 0 1.427-1.295 3.988 3.988 0 0 0-3.286-6.169h.016zM154.004 79.32a.19.19 0 0 1-.085-.022.19.19 0 0 1-.068-.057.198.198 0 0 1-.038-.168c.117-.523.33-1.02.63-1.464a4.384 4.384 0 0 1 6.053-1.196c.232.16.449.338.65.535a.207.207 0 0 1 .054.092.214.214 0 0 1-.002.106.201.201 0 0 1-.151.136 40.608 40.608 0 0 0-6.967 2.022.254.254 0 0 1-.076.016zm4.072-3.246a3.96 3.96 0 0 0-3.302 1.759 3.816 3.816 0 0 0-.47.957 40.852 40.852 0 0 1 6.276-1.822 3.945 3.945 0 0 0-2.504-.894zM101.823 57.898a.16.16 0 0 1-.087-.02.194.194 0 0 1-.104-.244c.167-.49.343-.957.534-1.423a.199.199 0 0 1 .379.11 4.176 4.176 0 0 1-.554 1.48.198.198 0 0 1-.168.096v.001zM107.235 74.973a4.366 4.366 0 0 1-4.225-3.31 4.368 4.368 0 0 1 2.183-4.902 4.363 4.363 0 0 1 4.468 7.481 4.322 4.322 0 0 1-1.582.647 4.377 4.377 0 0 1-.844.085v-.001zm.019-8.33a3.967 3.967 0 0 0-3.907 3.187 3.969 3.969 0 0 0 1.678 4.066 3.96 3.96 0 0 0 4.404.004c.433-.288.806-.66 1.095-1.093a3.986 3.986 0 0 0-1.093-5.499 3.911 3.911 0 0 0-2.177-.685v.02zM124.559 77.525a4.385 4.385 0 1 1 .009-8.77 4.385 4.385 0 0 1-.009 8.77zm.02-8.33a3.965 3.965 0 0 0-3.945 4.36 3.963 3.963 0 0 0 7.231 1.816 3.986 3.986 0 0 0-3.286-6.168v-.008z" fill="#3B7CD3"/><path d="M100.782 61.722a.2.2 0 0 1-.191-.136.199.199 0 0 1-.008-.1c.092-.514.196-1 .315-1.443.251-.921.499-1.731.734-2.393.167-.49.343-.957.534-1.423.194-.483.415-.955.662-1.412a.2.2 0 0 1 .331-.027 4.349 4.349 0 0 1 .215 5.143 4.347 4.347 0 0 1-2.544 1.798l-.048-.007zm2.25-6.453c-.164.323-.331.69-.5 1.093a23.96 23.96 0 0 0-.522 1.4 35.02 35.02 0 0 0-.726 2.392 16.52 16.52 0 0 0-.25 1.092 3.92 3.92 0 0 0 1.994-1.547 3.948 3.948 0 0 0 .004-4.43zM134.158 91.813a4.374 4.374 0 0 1-3.513-1.764 4.368 4.368 0 0 1 .354-5.616 4.362 4.362 0 0 1 5.596-.596 4.39 4.39 0 0 1 1.196 6.054A4.34 4.34 0 0 1 135 91.745c-.278.049-.56.072-.842.068zm0-8.326a3.951 3.951 0 0 0-3.403 1.922 3.96 3.96 0 0 0 1.275 5.39 3.96 3.96 0 0 0 5.418-1.148 3.962 3.962 0 0 0-1.252-5.6 3.968 3.968 0 0 0-2.038-.564zM152.777 55.035h-.028a4.354 4.354 0 0 1-3.031-6.747 4.246 4.246 0 0 1 1.22-1.216.194.194 0 0 1 .088-.03c.03-.004.062 0 .092.01a.216.216 0 0 1 .077.052c.021.023.037.05.047.08a64.521 64.521 0 0 1 1.73 7.624.19.19 0 0 1-.052.168.201.201 0 0 1-.143.06zm-1.843-7.472a3.903 3.903 0 0 0-.885.945 3.96 3.96 0 0 0-.381 3.707 3.957 3.957 0 0 0 2.87 2.378 64.595 64.595 0 0 0-1.604-7.019v-.011zM119.954 87.59a.198.198 0 0 1-.131-.048l-2.202-1.961a.19.19 0 0 1-.057-.062.174.174 0 0 1-.028-.08.182.182 0 0 1 .008-.083.202.202 0 0 1 .192-.14.22.22 0 0 1 .081.018c.026.013.049.03.067.051l2.062 1.835c.146-.153.28-.317.399-.491a3.99 3.99 0 0 0-1.093-5.499c-1.898-1.272-4.127-.93-5.291.798a.199.199 0 0 1-.362-.074.2.2 0 0 1 .031-.15c1.292-1.93 3.752-2.316 5.845-.917a4.38 4.38 0 0 1 1.842 2.78 4.377 4.377 0 0 1-1.211 3.96.208.208 0 0 1-.152.063z" fill="#3B7CD3"/><path d="M117.753 85.633a14.792 14.792 0 0 1-4.949-1.197.198.198 0 0 1-.107-.108.201.201 0 0 1 .106-.26.197.197 0 0 1 .152 0 14.836 14.836 0 0 0 4.805 1.162c.054 0 .104.02.141.058a.198.198 0 0 1 0 .282.2.2 0 0 1-.141.058l-.007.005zM130.102 96.617a.2.2 0 0 1-.071-.012.195.195 0 0 1-.061-.04l-1.595-1.412a.2.2 0 0 1-.063-.123.21.21 0 0 1 .031-.136.197.197 0 0 1 .252-.071c.16.077.314.164.462.263.476.324.884.74 1.196 1.224a.194.194 0 0 1-.036.26.207.207 0 0 1-.115.047z" fill="#3B7CD3"/><path d="M227.265 151.535s2.87-1.567 5.81-1.156c2.938.411 6.814 5.407 7.11 14.579.294 9.171.29 25.15-4.096 28.447-5.319 3.944-21.629 6.169-32.383 3.055-10.755-3.114-5.228-9.335-5.228-9.335l25.445-12.705 3.342-22.885z" fill="#5E96FC"/><path d="M215.462 198.111c-4.155 0-8.295-.451-11.832-1.476-3.8-1.101-6.029-2.712-6.631-4.785-.73-2.532 1.229-4.785 1.312-4.865l.06-.048 25.356-12.673 3.362-22.88.088-.044c.12-.068 2.963-1.596 5.93-1.196 2.842.398 6.978 5.239 7.285 14.753.53 16.53-.881 26.156-4.195 28.615-3.605 2.705-12.202 4.599-20.735 4.599zm-16.88-10.843c-.215.26-1.83 2.289-1.196 4.466.562 1.938 2.703 3.461 6.38 4.518 10.707 3.102 26.932.893 32.207-3.023 2.206-1.635 4.69-7.867 4.036-28.284-.299-9.291-4.238-14.004-6.939-14.383-2.559-.359-5.103.837-5.582 1.089l-3.361 22.885-.092.048-25.453 12.684z" fill="#3B7CD3"/><path d="M231.623 187.475c-5.017 4.868-16.141 4.386-22.893 3.158-6.751-1.228-10.125-1.834-10.272-3.526-.147-1.69 2.568-6.954 3.904-8.804 2.361-3.262 5.634-4.255 7.102-4.697 1.467-.443.343-1.787.343-1.787s5.825-.857 8.924-3.792a6.53 6.53 0 0 0 1.224-1.535c.513-.919.948-1.88 1.3-2.871 1.085-3.022 1.288-5.89 1.041-7.246v-.051a1.397 1.397 0 0 0-.044-.204v-.048c-.438-1.539-1.786-3.68-1.786-3.68s2.587-1.727 5.677-1.28c3.318.474 6.433 7.07 7.976 14.642 1.675 8.342 1.463 17.876-2.496 21.721z" fill="#92C1FF"/><path d="M217.623 191.658a50.355 50.355 0 0 1-8.928-.829l-.399-.076c-6.779-1.252-9.869-1.822-10.025-3.629-.155-1.806 2.688-7.201 3.944-8.936 2.393-3.33 5.77-4.339 7.206-4.785a.773.773 0 0 0 .586-.45 1.363 1.363 0 0 0-.339-1.021.207.207 0 0 1-.045-.093.19.19 0 0 1 .072-.187.199.199 0 0 1 .096-.043c.056 0 5.799-.882 8.817-3.741a6.176 6.176 0 0 0 1.196-1.487c.509-.909.94-1.858 1.288-2.839 1.061-2.963 1.28-5.783 1.033-7.142v-.04a1.308 1.308 0 0 0-.044-.195v-.065c-.422-1.479-1.746-3.588-1.762-3.616a.197.197 0 0 1-.025-.148.195.195 0 0 1 .084-.123 9.124 9.124 0 0 1 5.819-1.312c3.648.522 6.719 7.808 8.142 14.801 1.523 7.49 1.779 17.726-2.532 21.905-3.114 3.007-8.613 4.051-14.184 4.051zm-7.453-19.694a1.457 1.457 0 0 1 .228 1.112 1.148 1.148 0 0 1-.854.721c-1.399.4-4.669 1.405-6.998 4.623-1.359 1.878-4.007 7.077-3.868 8.673.128 1.503 3.529 2.129 9.698 3.269l.399.076c7.576 1.396 18.052 1.424 22.729-3.106 4.191-4.068 3.92-14.144 2.416-21.534-1.655-8.11-4.864-14.064-7.808-14.486-2.547-.367-4.784.798-5.379 1.148a17.611 17.611 0 0 1 1.707 3.561v.06c.021.072.037.145.048.219v.04c.26 1.415.04 4.319-1.049 7.353a19.22 19.22 0 0 1-1.311 2.899 6.713 6.713 0 0 1-1.261 1.595c-2.716 2.572-7.452 3.553-8.697 3.777z" fill="#3B7CD3"/><path d="m234.095 165.756-5.184-1.061c-4.57-.946-6.256-6.891-6.595-8.303v-.051l-.045-.204v-.048c-.438-1.539-1.786-3.681-1.786-3.681s2.588-1.726 5.678-1.279c3.274.458 6.388 7.054 7.932 14.627z" fill="#3B7CD3"/><path d="m234.35 166.01-5.499-1.137c-4.733-.976-6.452-7.213-6.75-8.453l-.029-.131a1.191 1.191 0 0 1-.028-.132v-.044c-.422-1.479-1.746-3.589-1.763-3.617l-.102-.164.163-.107a9.12 9.12 0 0 1 5.818-1.312c3.649.523 6.719 7.807 8.142 14.802l.048.295zm-13.638-13.558a17.558 17.558 0 0 1 1.707 3.561v.06c.005.04.014.08.024.12l.032.139c.287 1.196 1.946 7.217 6.44 8.147l4.905 1.012c-1.667-7.974-4.837-13.768-7.744-14.188-2.532-.363-4.741.798-5.364 1.153v-.004zM222.009 171.848c-1.643-.167-2.7-2.229-3.278-3.82a6.53 6.53 0 0 0 1.224-1.535c.513-.919.948-1.88 1.3-2.872.878 2.381 2.935 8.451.754 8.227z" fill="#3B7CD3"/><path d="M222.132 172.051a.717.717 0 0 1-.131 0c-1.727-.176-2.827-2.244-3.442-3.948l-.048-.123.096-.092a6.134 6.134 0 0 0 1.196-1.488c.509-.908.94-1.857 1.289-2.838l.183-.515.191.515c.937 2.52 2.365 6.926 1.42 8.15a.901.901 0 0 1-.754.339zm-3.154-3.988c.586 1.596 1.595 3.418 3.062 3.59a.52.52 0 0 0 .491-.18c.57-.733.088-3.433-1.292-7.258-.32.823-.695 1.622-1.125 2.393a6.633 6.633 0 0 1-1.148 1.471l.012-.016zM223.297 179.675c0-.024-.479-2.305-5.423-4.646-4.945-2.34-8.311-1.248-8.343-1.236l-.131-.374c.14-.048 3.497-1.197 8.641 1.248 5.144 2.444 5.63 4.841 5.651 4.94l-.395.068zM201.134 194.27h-.107a.94.94 0 0 1-.687-.737 2.972 2.972 0 0 1-.052-1.336c.18-1.064.798-1.819 1.384-1.715a.953.953 0 0 1 .682.738c.122.435.142.892.056 1.335-.172.994-.718 1.715-1.276 1.715zm.426-3.405c-.311 0-.737.546-.881 1.388-.073.382-.058.777.044 1.152.084.267.219.439.367.463.319.052.778-.502.926-1.384a2.511 2.511 0 0 0-.041-1.153c-.083-.267-.219-.438-.37-.462l-.045-.004zM215.413 196.364h-.116a.94.94 0 0 1-.446-.274.944.944 0 0 1-.235-.467 2.92 2.92 0 0 1-.056-1.337c.183-1.061.798-1.81 1.388-1.71a.948.948 0 0 1 .682.738c.12.435.139.892.055 1.335a2.927 2.927 0 0 1-.498 1.244 1.017 1.017 0 0 1-.331.328 1.02 1.02 0 0 1-.443.143zm.423-3.405c-.315 0-.737.542-.881 1.387-.074.382-.061.776.04 1.153.083.267.219.438.37.462.152.024.336-.088.503-.314.221-.32.365-.686.423-1.07.075-.382.06-.776-.04-1.152-.084-.267-.219-.439-.371-.463l-.044-.003zM230.338 194.656a1.014 1.014 0 0 1-.798-.482 3.203 3.203 0 0 1-.426-2.58.946.946 0 0 1 .236-.467.944.944 0 0 1 .45-.267c.59-.104 1.197.654 1.375 1.719.085.444.065.901-.059 1.336a.941.941 0 0 1-.686.733.404.404 0 0 1-.092.008zm-.398-3.409h-.044c-.152.028-.288.196-.371.463a2.793 2.793 0 0 0 .371 2.225c.168.227.355.343.502.315.147-.028.288-.192.371-.463.102-.374.118-.767.048-1.148-.155-.829-.579-1.392-.89-1.392h.013zM237.721 183.527a2.87 2.87 0 0 1-.766-.104c-.965-.25-1.595-.852-1.443-1.398.15-.547.98-.77 1.946-.515.965.256 1.594.854 1.443 1.4-.104.394-.571.617-1.18.617zm-1.018-1.722c-.438 0-.757.135-.797.319-.072.271.399.718 1.156.914.759.194 1.388.039 1.46-.232.071-.271-.399-.718-1.16-.914a2.709 2.709 0 0 0-.659-.087zM237.932 171.473h-.168c-.921-.052-1.595-.487-1.571-1.017a.791.791 0 0 1 .566-.658c.351-.144.73-.205 1.108-.175.926.052 1.596.486 1.572 1.013a.8.8 0 0 1-.567.661 2.383 2.383 0 0 1-.94.176zm-.228-1.459a2.018 2.018 0 0 0-.798.143c-.195.088-.318.207-.326.319 0 .247.494.554 1.196.594.315.024.631-.023.925-.139.199-.088.319-.208.327-.319 0-.248-.494-.555-1.196-.594h-.139l.011-.004zM236.684 161.129h-.168c-.925-.052-1.595-.486-1.571-1.013.024-.526.75-.885 1.674-.833.922.052 1.596.487 1.568 1.013a.802.802 0 0 1-.563.662c-.298.12-.619.178-.94.171zm-.232-1.455c-.63 0-1.096.231-1.109.458-.011.228.495.558 1.197.595.316.023.633-.024.929-.14.196-.088.319-.204.327-.315 0-.251-.494-.558-1.196-.595l-.148-.003zM232.748 153.186h-.167c-.926-.052-1.596-.487-1.572-1.017a.8.8 0 0 1 .567-.658c.35-.144.73-.204 1.109-.175.924.052 1.594.486 1.57 1.013a.796.796 0 0 1-.566.661 2.388 2.388 0 0 1-.941.176zm-.228-1.46a2.027 2.027 0 0 0-.796.144c-.2.088-.32.207-.328.319 0 .247.495.554 1.196.594.315.024.632-.024.926-.14.199-.087.319-.207.326-.318 0-.248-.494-.554-1.196-.595l-.128-.004z" fill="#3B7CD3"/><path d="M7.413 141.638s-2.584-.235-4.314 1.488a9.436 9.436 0 0 0-2.298 3.68l62.45 83.074s2.596.634 7.904-4.945a22.296 22.296 0 0 0 1.994-2.508l8.577-7.768-61.482-75.883-12.832 2.862z" fill="#5E96FC"/><path d="M63.522 230.091a1.478 1.478 0 0 1-.32-.028l-.071-.02-.04-.056L.583 146.85l.028-.096a9.606 9.606 0 0 1 2.344-3.772c1.695-1.679 4.12-1.571 4.442-1.543l12.924-2.883.08.096 61.604 76.031-8.697 7.876a22.431 22.431 0 0 1-1.994 2.512c-4.362 4.57-6.934 5.02-7.791 5.02zm-.164-.398c.427.039 2.967.028 7.653-4.901a21.797 21.797 0 0 0 1.993-2.481l.032-.035 8.438-7.641-61.31-75.637-12.74 2.84h-.032c-.024 0-2.512-.204-4.155 1.427a9.492 9.492 0 0 0-2.212 3.505l62.333 82.923z" fill="#3B7CD3"/><path d="M89.214 214.487c-7.154 5.155-15.835 7.871-16.055 7.936.096-.124 2.824-3.949-13.346-26.658a749.029 749.029 0 0 0-6.269-8.673c-13.182-17.944-22.988-29.205-32.031-36.814-10.85-9.119-14.101-8.641-14.101-8.641s7.452-11.564 20.313-10.092c12.86 1.471 31.17 28.555 35.601 29.32 4.43.767 5.184 1.723 4.303 2.517-.347.303.633 1.16 2.277 2.424 2.24 1.734 5.714 4.243 8.676 7.178.46.46.905.926 1.333 1.399 3.525 3.92 9.111 13.559 12.361 19.364 1.555 2.792 2.572 4.702 2.572 4.702s1.842-1.635 2.959.669c1.116 2.305-1.343 10.149-8.593 15.369z" fill="#92C1FF"/><path d="M73.16 222.621a.196.196 0 0 1-.163-.083.204.204 0 0 1 0-.235c.027-.037 2.643-3.952-13.356-26.422a758.208 758.208 0 0 0-6.264-8.67c-13.123-17.864-22.992-29.204-32.005-36.781-10.57-8.888-13.916-8.593-13.956-8.598a.187.187 0 0 1-.11-.016.198.198 0 0 1-.085-.286c.076-.12 7.672-11.672 20.508-10.185 8.27.961 18.713 12.334 26.341 20.641 4.172 4.517 7.76 8.417 9.288 8.68 2.986.515 4.545 1.144 4.784 1.931a.885.885 0 0 1-.367.933c-.072.318 1.691 1.674 2.269 2.117l1.196.925a74.733 74.733 0 0 1 7.493 6.284c.467.467.918.941 1.337 1.404 3.568 3.964 9.29 13.86 12.385 19.404a304.594 304.594 0 0 1 2.46 4.493 2.224 2.224 0 0 1 1.635-.426c.59.115 1.072.558 1.44 1.312 1.16 2.393-1.312 10.312-8.657 15.6-7.219 5.183-16.027 7.939-16.114 7.975a.138.138 0 0 1-.06.003zM7.762 141.45c1.157.136 4.985 1.197 13.857 8.673 9.032 7.577 18.92 18.965 32.064 36.853a602.55 602.55 0 0 1 6.273 8.674c13.627 19.14 13.921 24.934 13.533 26.449 1.811-.598 9.304-3.249 15.588-7.772 7.314-5.268 9.515-13.074 8.53-15.101a1.765 1.765 0 0 0-1.157-1.096c-.753-.147-1.483.482-1.49.486a.22.22 0 0 1-.08.044.207.207 0 0 1-.089.004.188.188 0 0 1-.081-.035.185.185 0 0 1-.058-.068s-1.033-1.942-2.568-4.698c-3.086-5.53-8.793-15.396-12.338-19.332a28.342 28.342 0 0 0-1.32-1.388 74.176 74.176 0 0 0-7.425-6.256l-1.196-.921c-1.822-1.403-2.413-1.994-2.429-2.417a.393.393 0 0 1 .136-.319c.212-.187.295-.363.252-.522-.08-.279-.674-1.001-4.455-1.647-1.67-.287-5.124-4.047-9.49-8.805-7.577-8.258-17.977-19.571-26.1-20.511-11.46-1.324-18.665 7.923-19.937 9.705h-.02z" fill="#3B7CD3"/><path d="M63.251 229.881c3.064-2.246-8.343-23.018-25.477-46.395C20.64 160.109 4.264 142.978 1.2 145.225c-3.064 2.245 8.343 23.017 25.477 46.394 17.135 23.378 33.51 40.507 36.573 38.262h.001z" fill="#92C1FF"/><path d="M62.578 230.274c-2.56 0-8.067-5.184-12.482-9.778-6.913-7.233-15.288-17.449-23.578-28.762-8.29-11.313-15.512-22.375-20.337-31.144-3.442-6.267-7.123-14.051-5.109-15.527 2.015-1.475 8.33 4.386 13.27 9.543 6.916 7.233 15.289 17.449 23.584 28.762 8.294 11.313 15.508 22.375 20.336 31.144 3.446 6.268 7.127 14.051 5.109 15.527-.232.163-.511.246-.794.235zM1.887 145.219a.955.955 0 0 0-.57.163c-1.349.989.601 6.604 5.223 15.017 4.784 8.773 12.014 19.799 20.296 31.104 8.282 11.304 16.645 21.5 23.548 28.71 6.631 6.943 11.4 10.492 12.76 9.503 1.36-.989-.602-6.604-5.22-15.017-4.808-8.773-12.018-19.799-20.3-31.104s-16.645-21.501-23.527-28.71c-5.93-6.173-10.352-9.666-12.21-9.666z" fill="#3B7CD3"/><path d="M5.817 156.507a.2.2 0 0 1-.154-.026.202.202 0 0 1-.066-.282.203.203 0 0 1 .128-.09l5.643-2.947a.195.195 0 0 1 .075-.021.186.186 0 0 1 .078.008.206.206 0 0 1 .117.098c.012.024.02.049.022.075a.202.202 0 0 1-.107.195l-5.643 2.946a.178.178 0 0 1-.092.044zM11.46 166.664a.222.222 0 0 1-.176-.103.21.21 0 0 1-.014-.152.205.205 0 0 1 .095-.12l7.767-4.275a.194.194 0 0 1 .152-.016.2.2 0 0 1 .119.096.192.192 0 0 1-.016.221.18.18 0 0 1-.06.05l-7.771 4.275a.202.202 0 0 1-.096.024zM17.302 176.294a.204.204 0 0 1-.167-.092.203.203 0 0 1 .06-.276l8.773-5.69a.203.203 0 0 1 .15-.028c.025.005.05.016.07.031a.23.23 0 0 1 .054.057c.029.044.04.098.029.15a.198.198 0 0 1-.085.125l-8.776 5.687a.207.207 0 0 1-.108.036zM24.958 186.838a.2.2 0 0 1-.163-.087.2.2 0 0 1 .052-.276l8.672-6.01a.208.208 0 0 1 .15-.03.202.202 0 0 1 .129.082.2.2 0 0 1-.052.276l-8.665 6.009a.203.203 0 0 1-.124.036zM31.478 196.463a.197.197 0 0 1-.188-.14.202.202 0 0 1 .076-.223l8.932-5.956c.045-.03.1-.041.151-.03.052.01.098.041.129.085.028.043.04.097.028.149a.2.2 0 0 1-.084.126l-8.94 5.958a.182.182 0 0 1-.103.031h-.001zM37.906 204.211a.19.19 0 0 1-.167-.092.194.194 0 0 1-.027-.149.202.202 0 0 1 .086-.126l8.773-5.511a.212.212 0 0 1 .073-.029.231.231 0 0 1 .078.002.19.19 0 0 1 .124.092.203.203 0 0 1-.063.274l-8.757 5.499a.214.214 0 0 1-.12.04zM43.218 211.37a.202.202 0 0 1-.176-.109.201.201 0 0 1-.023-.074.202.202 0 0 1 .045-.145.204.204 0 0 1 .06-.048l7.76-4.346a.198.198 0 0 1 .153-.013.2.2 0 0 1 .03.368l-7.76 4.347a.263.263 0 0 1-.09.02zM49.254 218.053a.196.196 0 0 1-.095-.025.2.2 0 0 1-.099-.218.198.198 0 0 1 .09-.124l5.583-3.533a.2.2 0 0 1 .276.063.2.2 0 0 1-.065.276l-5.582 3.533a.204.204 0 0 1-.108.028zM54.852 223.945a.202.202 0 0 1-.101-.027.212.212 0 0 1-.074-.076.2.2 0 0 1 .076-.271l4.286-2.373a.199.199 0 0 1 .27.076.187.187 0 0 1 .026.074.204.204 0 0 1-.041.148.192.192 0 0 1-.06.049l-4.271 2.373a.168.168 0 0 1-.111.027zM46.084 191.1a1.322 1.322 0 0 1-1.045-.398c-.347-.399-.35-1.057 0-1.819.4-.81.97-1.524 1.67-2.093a6.2 6.2 0 0 1 2.35-1.3c.797-.211 1.443-.104 1.79.307s.35 1.057 0 1.818a6.905 6.905 0 0 1-4.02 3.398 3.07 3.07 0 0 1-.745.087zm3.713-5.335a2.678 2.678 0 0 0-.642.091 6.52 6.52 0 0 0-3.757 3.191c-.276.602-.295 1.108-.056 1.395.24.288.746.347 1.388.18a6.531 6.531 0 0 0 3.756-3.19c.276-.606.295-1.113.056-1.396a.956.956 0 0 0-.746-.271zM57.266 207.565a1.306 1.306 0 0 1-1.045-.399c-.351-.399-.351-1.057 0-1.819a6.3 6.3 0 0 1 1.675-2.093 6.228 6.228 0 0 1 2.34-1.316c.799-.211 1.445-.103 1.795.307.351.411.347 1.057 0 1.819a6.91 6.91 0 0 1-4.02 3.397c-.242.064-.493.1-.745.104zm3.708-5.336a2.6 2.6 0 0 0-.638.092 6.502 6.502 0 0 0-3.76 3.19c-.271.602-.292 1.108-.053 1.396.24.287.742.347 1.384.179a6.51 6.51 0 0 0 3.76-3.189c.27-.607.291-1.113.052-1.396a.952.952 0 0 0-.746-.272h.001zM66.804 225.254a1.32 1.32 0 0 1-.567-.081 1.315 1.315 0 0 1-.478-.318c-.694-.821.04-2.54 1.667-3.916a6.32 6.32 0 0 1 2.35-1.3c.797-.211 1.438-.1 1.79.311.69.822-.04 2.54-1.67 3.912a6.228 6.228 0 0 1-2.346 1.304 3.12 3.12 0 0 1-.746.088zm3.708-5.336c-.215.004-.429.035-.637.093a5.812 5.812 0 0 0-2.19 1.22c-1.411 1.196-2.153 2.723-1.623 3.349.239.283.746.351 1.383.184a5.886 5.886 0 0 0 2.194-1.221c1.407-1.196 2.15-2.723 1.618-3.354a.954.954 0 0 0-.342-.218.967.967 0 0 0-.404-.053h.001zM32.94 173.997a1.299 1.299 0 0 1-1.048-.399c-.35-.399-.35-1.057 0-1.814.4-.812.972-1.528 1.675-2.098 1.627-1.375 3.445-1.81 4.14-.989.693.822-.041 2.537-1.671 3.913-1.081.889-2.233 1.387-3.094 1.387h-.001zm.878-4.024a5.86 5.86 0 0 0-1.57 1.959c-.271.602-.291 1.111-.052 1.395.53.626 2.17.151 3.588-1.037 1.42-1.188 2.15-2.728 1.619-3.353-.531-.626-2.166-.152-3.589 1.036h.004zM20.168 158.713a1.122 1.122 0 0 1-.89-.351c-.295-.347-.3-.893 0-1.532a5.235 5.235 0 0 1 1.387-1.738c1.356-1.14 2.872-1.499 3.453-.797.583.702-.024 2.125-1.375 3.27a4.37 4.37 0 0 1-2.576 1.148h.001zm3.042-4.386a3.99 3.99 0 0 0-2.3 1.072 4.781 4.781 0 0 0-1.28 1.595c-.22.482-.236.889-.049 1.113.38.446 1.631.207 2.892-.857 1.26-1.065 1.707-2.262 1.332-2.708a.744.744 0 0 0-.595-.215zM7.437 147.005a.935.935 0 0 1-.754-.307c-.255-.299-.259-.758 0-1.296a4.307 4.307 0 0 1 1.152-1.443 4.254 4.254 0 0 1 1.595-.89c.574-.152 1.025-.072 1.276.228.25.299.26.761 0 1.299a4.764 4.764 0 0 1-2.763 2.333 2.167 2.167 0 0 1-.507.076h.001zm.638-2.74a3.91 3.91 0 0 0-1.044 1.3c-.172.399-.187.707-.044.878.143.171.463.207.873.099a3.842 3.842 0 0 0 1.456-.797 3.989 3.989 0 0 0 1.044-1.3c.172-.399.188-.706.045-.878-.144-.171-.463-.211-.874-.103a3.926 3.926 0 0 0-1.456.797v.004z" fill="#3B7CD3"/><path d="M89.214 214.488c-7.154 5.155-15.835 7.871-16.055 7.934.096-.123 2.824-3.948-13.346-26.657a748.625 748.625 0 0 0-6.269-8.672c3.904-.878 13.16-2.661 21.187-1.946 10.367.916 17.326 8.374 17.545 8.613a308.936 308.936 0 0 1 2.572 4.701s1.842-1.635 2.959.67c1.116 2.305-1.344 10.136-8.593 15.357z" fill="#3B7CD3"/><path d="m72.63 222.79.374-.487c.028-.035 2.644-3.951-13.354-26.421a749.48 749.48 0 0 0-6.264-8.67l-.18-.247.295-.063c3.673-.83 13.092-2.677 21.25-1.955 10.108.898 16.923 7.88 17.664 8.678l.057.083a319.165 319.165 0 0 1 2.44 4.458 2.22 2.22 0 0 1 1.635-.427c.59.116 1.072.559 1.44 1.312 1.16 2.393-1.312 10.312-8.658 15.6-7.218 5.184-16.026 7.939-16.114 7.975l-.586.164zm-18.743-35.566c1.994 2.735 4.051 5.583 6.09 8.426 13.625 19.14 13.92 24.935 13.534 26.45 1.81-.599 9.302-3.25 15.587-7.772 7.313-5.267 9.514-13.075 8.53-15.101a1.767 1.767 0 0 0-1.157-1.097c-.753-.147-1.483.483-1.492.487l-.19.167-.117-.223s-1.032-1.938-2.563-4.682c-.881-.933-7.557-7.664-17.394-8.537-7.892-.71-16.987 1.029-20.827 1.882h-.001zM78.579 172.996c-5.355-.618-15.811-2.205-17.302-5.26-1.288-2.644 4.386-2.429 8.626-1.931 2.244 1.735 5.718 4.244 8.676 7.191z" fill="#3B7CD3"/><path d="m79.134 173.264-.57-.069c-5.879-.677-15.951-2.281-17.462-5.371a1.363 1.363 0 0 1 0-1.459c.777-1.096 3.748-1.352 8.82-.758h.056l.043.032 1.197.926a74.701 74.701 0 0 1 7.492 6.284l.424.415zm-13.77-7.577c-2.15 0-3.509.304-3.932.902a.99.99 0 0 0 .028 1.056c1.42 2.907 11.631 4.478 16.569 5.076a78.133 78.133 0 0 0-7.027-5.834c-.398-.315-.796-.609-1.16-.889a40.152 40.152 0 0 0-4.478-.303v-.008z" fill="#3B7CD3"/></g><defs><clipPath id="a"><path fill="#fff" transform="translate(.5)" d="M0 0h240.001v230.275H0z"/></clipPath></defs></svg>